<svg width="1em" height="1em" viewBox="0 0 24 24" fill="none" xmlns="http://www.w3.org/2000/svg">
  <path
    d="M11.1929 16.2131C11.2498 16.3502 11.2647 16.501 11.2358 16.6465C11.207 16.792 11.1356 16.9257 11.0307 17.0306L8.03073 20.0306C7.96107 20.1004 7.87836 20.1557 7.78731 20.1934C7.69626 20.2312 7.59866 20.2506 7.5001 20.2506C7.40154 20.2506 7.30395 20.2312 7.2129 20.1934C7.12185 20.1557 7.03913 20.1004 6.96948 20.0306L3.96948 17.0306C3.86447 16.9257 3.79294 16.7921 3.76396 16.6465C3.73497 16.5009 3.74982 16.35 3.80664 16.2129C3.86345 16.0758 3.95967 15.9586 4.08312 15.8762C4.20656 15.7938 4.35168 15.7499 4.5001 15.75H6.7501L6.7501 4.50001C6.7501 4.3011 6.82912 4.11033 6.96977 3.96968C7.11043 3.82903 7.30119 3.75001 7.5001 3.75001C7.69902 3.75001 7.88978 3.82903 8.03043 3.96968C8.17109 4.11033 8.2501 4.3011 8.2501 4.50001L8.2501 15.75L10.5001 15.75C10.6484 15.75 10.7934 15.7941 10.9168 15.8765C11.0401 15.9589 11.1362 16.0761 11.1929 16.2131ZM20.0307 6.96938L17.0307 3.96939C16.9611 3.89965 16.8784 3.84433 16.7873 3.80659C16.6963 3.76885 16.5987 3.74942 16.5001 3.74942C16.4015 3.74942 16.3039 3.76885 16.2129 3.80659C16.1218 3.84433 16.0391 3.89965 15.9695 3.96939L12.9695 6.96938C12.8645 7.07428 12.7929 7.20797 12.764 7.35353C12.735 7.49909 12.7498 7.64999 12.8066 7.7871C12.8635 7.92422 12.9597 8.0414 13.0831 8.1238C13.2066 8.2062 13.3517 8.25013 13.5001 8.25001H15.7501L15.7501 19.5C15.7501 19.6989 15.8291 19.8897 15.9698 20.0303C16.1104 20.171 16.3012 20.25 16.5001 20.25C16.699 20.25 16.8898 20.171 17.0304 20.0303C17.1711 19.8897 17.2501 19.6989 17.2501 19.5V8.25001L19.5001 8.25001C19.6485 8.25013 19.7936 8.2062 19.9171 8.1238C20.0405 8.0414 20.1368 7.92422 20.1936 7.7871C20.2504 7.64999 20.2652 7.49909 20.2363 7.35353C20.2073 7.20797 20.1357 7.07428 20.0307 6.96938Z"
    fill="currentColor" />
</svg>
