<svg width="1em" height="1em" viewBox="0 0 24 24" fill="none" xmlns="http://www.w3.org/2000/svg">
  <path
    d="M2.32038 10.8319C2.54185 8.97473 3.30145 7.22287 4.50569 5.79186C4.63894 5.63118 4.80425 5.50009 4.99106 5.40695C5.17787 5.31382 5.38206 5.2607 5.59057 5.251C5.79908 5.24129 6.00732 5.27521 6.20198 5.35058C6.39663 5.42596 6.57341 5.54113 6.721 5.68874L9.31507 8.33811C9.56489 8.58736 9.71798 8.9173 9.74701 9.269C9.77603 9.62071 9.67909 9.97128 9.4735 10.2581C9.31778 10.479 9.2005 10.7247 9.12663 10.9847C9.10316 11.0614 9.05572 11.1286 8.99126 11.1763C8.9268 11.2241 8.84873 11.2499 8.7685 11.25L2.6935 11.25C2.64057 11.2501 2.58821 11.2389 2.53988 11.2174C2.49155 11.1958 2.44834 11.1642 2.4131 11.1247C2.37785 11.0852 2.35137 11.0387 2.33539 10.9882C2.31941 10.9377 2.31429 10.8844 2.32038 10.8319ZM12.8804 2.25561C12.6732 2.23754 12.4645 2.26276 12.2676 2.32965C12.0707 2.39654 11.8898 2.50365 11.7365 2.64418C11.5832 2.78471 11.4608 2.95558 11.377 3.14595C11.2933 3.33631 11.2501 3.54201 11.2501 3.74999V7.5628C11.2475 7.91659 11.3711 8.25971 11.5988 8.53053C11.8265 8.80134 12.1433 8.98208 12.4923 9.0403C13.1494 9.14871 13.7518 9.47271 14.2044 9.96123C14.6571 10.4498 14.9344 11.075 14.9925 11.7385C15.0506 12.402 14.8863 13.0659 14.5254 13.6257C14.1646 14.1855 13.6277 14.6093 12.9994 14.8303C12.9263 14.8572 12.8632 14.9058 12.8186 14.9697C12.774 15.0336 12.7501 15.1096 12.7501 15.1875L12.7501 21.3028C12.7497 21.3559 12.7606 21.4085 12.7821 21.457C12.8036 21.5056 12.8352 21.549 12.8747 21.5845C12.9142 21.6199 12.9608 21.6466 13.0114 21.6627C13.062 21.6787 13.1154 21.6839 13.1682 21.6778C15.5081 21.3889 17.6649 20.2647 19.2417 18.512C20.8185 16.7593 21.7093 14.496 21.7501 12.1387C21.8204 7.04905 17.9241 2.70749 12.8804 2.25561ZM10.9923 14.8275C10.573 14.6779 10.1923 14.437 9.87775 14.1221C9.56317 13.8072 9.32261 13.4262 9.1735 13.0069C9.14794 12.9325 9.09996 12.8679 9.03617 12.8219C8.97237 12.7759 8.8959 12.7508 8.81725 12.75L2.69257 12.75C2.63956 12.7496 2.58709 12.7606 2.5386 12.782C2.49012 12.8034 2.44673 12.8349 2.41129 12.8743C2.37586 12.9137 2.34918 12.9602 2.33303 13.0107C2.31687 13.0612 2.3116 13.1145 2.31757 13.1672C2.58017 15.3341 3.56166 17.3505 5.10514 18.894C6.64862 20.4375 8.66498 21.4189 10.8319 21.6815C10.8846 21.6875 10.9379 21.6822 10.9884 21.6661C11.0389 21.6499 11.0854 21.6233 11.1248 21.5878C11.1642 21.5524 11.1957 21.509 11.2171 21.4605C11.2386 21.412 11.2495 21.3596 11.2491 21.3065L11.2491 15.1875C11.2493 15.1082 11.2246 15.0308 11.1785 14.9662C11.1324 14.9017 11.0673 14.8531 10.9923 14.8275Z"
    fill="currentColor" />
</svg>
